<svg width="31" height="31" viewBox="0 0 31 31" fill="none" xmlns="http://www.w3.org/2000/svg">
<path d="M25.9335 14.4414C26.0207 14.5285 26.0899 14.6319 26.137 14.7457C26.1842 14.8595 26.2085 14.9815 26.2085 15.1047C26.2085 15.2279 26.1842 15.3499 26.137 15.4637C26.0899 15.5775 26.0207 15.6809 25.9335 15.768L16.5585 25.143C16.4715 25.2301 16.3681 25.2993 16.2543 25.3465C16.1405 25.3936 16.0185 25.4179 15.8953 25.4179C15.7721 25.4179 15.6501 25.3936 15.5363 25.3465C15.4224 25.2993 15.3191 25.2301 15.232 25.143L5.85698 15.768C5.68107 15.5921 5.58224 15.3535 5.58224 15.1047C5.58224 14.8559 5.68107 14.6173 5.85698 14.4414C6.0329 14.2655 6.27149 14.1667 6.52027 14.1667C6.76904 14.1667 7.00763 14.2655 7.18355 14.4414L15.8953 23.1543L24.607 14.4414C24.6941 14.3542 24.7974 14.2851 24.9113 14.2379C25.0251 14.1907 25.1471 14.1665 25.2703 14.1665C25.3935 14.1665 25.5155 14.1907 25.6293 14.2379C25.7431 14.2851 25.8465 14.3542 25.9335 14.4414ZM15.232 15.768C15.3191 15.8551 15.4224 15.9243 15.5363 15.9715C15.6501 16.0186 15.7721 16.0429 15.8953 16.0429C16.0185 16.0429 16.1405 16.0186 16.2543 15.9715C16.3681 15.9243 16.4715 15.8551 16.5585 15.768L25.9335 6.39297C26.1095 6.21706 26.2083 5.97847 26.2083 5.72969C26.2083 5.48091 26.1095 5.24232 25.9335 5.06641C25.7576 4.8905 25.519 4.79167 25.2703 4.79167C25.0215 4.79167 24.7829 4.8905 24.607 5.06641L15.8953 13.7793L7.18355 5.06641C7.00763 4.8905 6.76904 4.79167 6.52027 4.79167C6.27149 4.79167 6.0329 4.8905 5.85698 5.06641C5.68107 5.24232 5.58224 5.48091 5.58224 5.72969C5.58224 5.97847 5.68107 6.21706 5.85698 6.39297L15.232 15.768Z" fill="black"/>
</svg>
