<svg width="133" height="134" viewBox="0 0 133 134" fill="none" xmlns="http://www.w3.org/2000/svg">
<path d="M118.44 73.7253C118.535 72.9377 118.722 72.2458 119.001 71.6497C119.28 71.0535 119.637 70.5468 120.073 70.1295L120.94 70.6575C120.66 70.9526 120.417 71.2522 120.211 71.5564C120.013 71.8709 119.849 72.213 119.72 72.5828C119.6 72.9537 119.511 73.3755 119.454 73.848C119.354 74.6727 119.433 75.3027 119.691 75.7382C119.948 76.1736 120.332 76.4221 120.841 76.4838C121.277 76.5365 121.627 76.4379 121.893 76.1879C122.158 75.938 122.402 75.474 122.625 74.7959L123.094 73.3718C123.388 72.4955 123.77 71.8602 124.241 71.4659C124.711 71.0808 125.302 70.9315 126.016 71.0178C126.599 71.0885 127.091 71.2984 127.491 71.6476C127.889 72.0061 128.176 72.4732 128.351 73.049C128.525 73.6249 128.569 74.2742 128.481 74.9969C128.397 75.6918 128.214 76.3136 127.931 76.8623C127.658 77.4121 127.297 77.8668 126.85 78.2262L126.009 77.7155C126.451 77.3271 126.784 76.9021 127.009 76.4405C127.243 75.9892 127.396 75.4625 127.469 74.8602C127.56 74.1004 127.467 73.478 127.187 72.9928C126.915 72.5181 126.497 72.2465 125.932 72.1781C125.478 72.1232 125.104 72.219 124.811 72.4656C124.527 72.7133 124.282 73.1489 124.075 73.7726L123.604 75.2105C123.296 76.1321 122.92 76.7917 122.477 77.1893C122.034 77.587 121.46 77.7432 120.756 77.658C120.218 77.593 119.759 77.387 119.378 77.04C118.996 76.7023 118.721 76.2508 118.555 75.6853C118.388 75.1199 118.35 74.4665 118.44 73.7253Z" fill="white"/>
<path d="M116.006 83.8989C116.303 82.9554 116.752 82.2161 117.351 81.681C117.951 81.1459 118.667 80.8141 119.501 80.6855C120.331 80.5658 121.245 80.6633 122.242 80.9778C123.239 81.2923 124.038 81.7355 124.641 82.3072C125.249 82.8907 125.646 83.5736 125.83 84.3558C126.013 85.1381 125.956 86.0009 125.659 86.9444C125.448 87.612 125.158 88.176 124.787 88.6366C124.417 89.0972 123.974 89.4615 123.459 89.7295L122.708 89.0376C123.217 88.7283 123.622 88.3912 123.923 88.0262C124.233 87.664 124.476 87.2026 124.653 86.6418C124.993 85.5648 124.918 84.6406 124.427 83.8693C123.936 83.0979 123.086 82.5213 121.875 82.1393C120.665 81.7574 119.633 81.7401 118.779 82.0875C117.935 82.4376 117.343 83.1512 117.003 84.2282C116.826 84.7889 116.756 85.3052 116.793 85.7769C116.839 86.2514 116.986 86.7626 117.234 87.3106L116.209 87.4423C115.95 86.9299 115.796 86.3774 115.748 85.7849C115.709 85.1951 115.795 84.5665 116.006 83.8989Z" fill="white"/>
<path d="M113.992 89.2292L122.672 93.9272L120.753 97.4732C120.26 98.3843 119.66 98.9724 118.954 99.2377C118.256 99.5074 117.522 99.4334 116.75 99.0158C116.241 98.7404 115.868 98.39 115.632 97.9647C115.399 97.552 115.299 97.0894 115.332 96.5768C115.361 96.0725 115.522 95.5494 115.815 95.0077L115.855 95.3159L115.722 95.5622C115.54 95.8987 115.296 96.1539 114.989 96.3277C114.679 96.5097 114.288 96.5743 113.818 96.5214L110.233 96.1733L110.84 95.0529L114.348 95.4236C114.793 95.484 115.145 95.4035 115.402 95.1822C115.668 94.9653 115.915 94.6475 116.141 94.2289L117.194 92.2836L113.439 90.2511L113.992 89.2292ZM117.994 92.7167L116.708 95.093C116.353 95.7497 116.224 96.3218 116.321 96.8094C116.421 97.3096 116.738 97.7041 117.272 97.9929C117.805 98.2816 118.305 98.3292 118.771 98.1355C119.232 97.95 119.64 97.5289 119.996 96.8723L121.282 94.496L117.994 92.7167Z" fill="white"/>
<path d="M112.912 100.666C113.717 101.333 114.294 102.041 114.643 102.791C114.993 103.553 115.112 104.324 114.999 105.104C114.881 105.89 114.518 106.65 113.91 107.383C113.321 108.095 112.651 108.582 111.9 108.845C111.149 109.107 110.366 109.138 109.552 108.936C108.739 108.747 107.933 108.322 107.136 107.661C106.331 106.994 105.756 106.276 105.412 105.506C105.068 104.736 104.952 103.955 105.063 103.162C105.175 102.383 105.526 101.637 106.116 100.926C106.723 100.193 107.399 99.6984 108.144 99.443C108.897 99.1934 109.68 99.1697 110.494 99.3717C111.309 99.5737 112.115 100.005 112.912 100.666ZM112.135 101.604C111.158 100.794 110.214 100.376 109.303 100.348C108.4 100.327 107.6 100.737 106.903 101.578C106.236 102.383 105.991 103.234 106.168 104.133C106.346 105.044 106.924 105.904 107.902 106.714C108.886 107.53 109.833 107.938 110.741 107.939C111.657 107.946 112.451 107.544 113.123 106.731C113.82 105.89 114.074 105.028 113.885 104.144C113.703 103.267 113.12 102.42 112.135 101.604Z" fill="white"/>
<path d="M101.689 105.637L108.04 113.192L107.151 113.939L101.448 107.156L97.6334 110.363L96.9848 109.591L101.689 105.637Z" fill="white"/>
<path d="M95.0763 110.7L100.153 119.164L99.157 119.762L94.5983 112.162L90.3243 114.726L89.8058 113.861L95.0763 110.7Z" fill="white"/>
<path d="M82.5761 116.628L85.2132 126.139L79.2772 127.785L79.0228 126.868L83.8391 125.532L82.9152 122.2L78.3957 123.453L78.1413 122.536L82.6608 121.282L81.4563 116.938L82.5761 116.628Z" fill="white"/>
<path d="M74.7722 123.539C74.8613 124.581 74.7609 125.489 74.4712 126.263C74.1729 127.047 73.7064 127.672 73.0719 128.139C72.428 128.606 71.6318 128.88 70.6833 128.961C69.7626 129.04 68.9454 128.904 68.2315 128.553C67.5177 128.202 66.9472 127.665 66.5202 126.943C66.0846 126.231 65.8227 125.358 65.7344 124.326C65.6454 123.285 65.7546 122.371 66.0622 121.586C66.3698 120.801 66.8451 120.17 67.4882 119.694C68.1228 119.227 68.9004 118.955 69.821 118.876C70.7696 118.795 71.5961 118.93 72.3006 119.282C73.006 119.644 73.5722 120.185 73.9992 120.908C74.4263 121.63 74.684 122.507 74.7722 123.539ZM73.5587 123.643C73.4505 122.378 73.0869 121.412 72.4677 120.743C71.8493 120.084 70.9961 119.801 69.9081 119.894C68.8665 119.983 68.0877 120.406 67.5716 121.162C67.0469 121.928 66.8387 122.944 66.9468 124.208C67.0557 125.482 67.4283 126.443 68.0645 127.092C68.7015 127.749 69.5454 128.033 70.5962 127.943C71.6842 127.85 72.477 127.426 72.9746 126.672C73.4729 125.927 73.6676 124.917 73.5587 123.643Z" fill="white"/>
<path d="M63.4226 119.066L62.3344 128.876L58.327 128.431C57.2973 128.317 56.5268 127.982 56.0154 127.428C55.5031 126.883 55.2953 126.174 55.392 125.302C55.4558 124.727 55.6402 124.25 55.9452 123.871C56.24 123.5 56.6311 123.233 57.1185 123.071C57.5968 122.908 58.142 122.861 58.7542 122.929L58.4837 123.082L58.2054 123.051C57.8251 123.009 57.4968 122.878 57.2205 122.66C56.935 122.44 56.7283 122.103 56.6004 121.647L55.5747 118.195L56.841 118.336L57.8171 121.726C57.9285 122.161 58.1352 122.456 58.4372 122.612C58.7382 122.777 59.1253 122.885 59.5984 122.938L61.7969 123.182L62.2677 118.938L63.4226 119.066ZM61.6966 124.086L59.011 123.788C58.2689 123.706 57.6902 123.801 57.2749 124.074C56.8492 124.356 56.603 124.798 56.5361 125.401C56.4692 126.004 56.6131 126.485 56.9677 126.843C57.3131 127.201 57.8568 127.421 58.5989 127.503L61.2844 127.801L61.6966 124.086Z" fill="white"/>
<path d="M48.2687 115.933L44.2203 124.935L43.301 124.521L43.357 114.737L43.7273 114.904L36.4445 121.438L35.5252 121.024L39.5737 112.023L40.544 112.459L37.11 120.094L36.727 119.922L43.5701 113.82L44.2723 114.136L44.2602 123.31L43.8771 123.138L47.3111 115.502L48.2687 115.933Z" fill="white"/>
<path d="M35.2038 114.84C34.5843 115.682 33.9105 116.299 33.1824 116.69C32.4411 117.084 31.6782 117.246 30.8936 117.179C30.1014 117.106 29.3219 116.787 28.5551 116.223C27.8108 115.676 27.2859 115.035 26.9805 114.3C26.675 113.566 26.5997 112.786 26.7545 111.961C26.8963 111.139 27.2741 110.31 27.8881 109.476C28.5075 108.634 29.1916 108.019 29.9404 107.631C30.6891 107.243 31.4623 107.082 32.26 107.148C33.0447 107.215 33.8091 107.523 34.5534 108.07C35.3202 108.634 35.8526 109.281 36.1505 110.01C36.4429 110.746 36.5117 111.527 36.3569 112.352C36.2021 113.176 35.8177 114.006 35.2038 114.84ZM34.2227 114.119C34.9749 113.096 35.3384 112.13 35.3132 111.219C35.2825 110.316 34.8274 109.54 33.9478 108.893C33.1057 108.274 32.2415 108.078 31.355 108.307C30.4555 108.537 29.6297 109.164 28.8775 110.186C28.1197 111.216 27.7665 112.184 27.8178 113.091C27.8635 114.005 28.3112 114.775 29.1607 115.4C30.0403 116.047 30.9158 116.251 31.7872 116.011C32.6531 115.78 33.465 115.149 34.2227 114.119Z" fill="white"/>
<path d="M29.6164 103.996L22.3326 110.656L19.6117 107.681C18.9126 106.916 18.5534 106.157 18.5343 105.403C18.5082 104.655 18.8189 103.986 19.4664 103.394C19.8934 103.003 20.3466 102.766 20.826 102.681C21.2923 102.597 21.7621 102.654 22.2354 102.853C22.7024 103.046 23.1438 103.37 23.5595 103.824L23.2551 103.761L23.0662 103.554C22.8079 103.272 22.6469 102.958 22.5831 102.611C22.513 102.258 22.58 101.868 22.7841 101.441L24.2879 98.1688L25.1476 99.1089L23.6473 102.302C23.4445 102.703 23.4053 103.061 23.5299 103.377C23.6477 103.699 23.8671 104.036 24.1884 104.387L25.6811 106.02L28.8322 103.138L29.6164 103.996ZM25.0095 106.634L23.1861 104.64C22.6823 104.089 22.1841 103.779 21.6917 103.711C21.1861 103.642 20.7094 103.812 20.2617 104.222C19.814 104.631 19.6054 105.088 19.6357 105.591C19.6598 106.088 19.9237 106.611 20.4276 107.162L22.251 109.156L25.0095 106.634Z" fill="white"/>
<path d="M23.2009 96.2746L14.843 101.525L11.492 96.1896L12.2981 95.6833L15.046 100.058L17.9505 98.2334L15.3665 94.1196L16.1845 93.6058L18.7685 97.7196L21.7798 95.8282L19.0319 91.4536L19.85 90.9397L23.2009 96.2746Z" fill="white"/>
<path d="M18.0534 79.2792C18.2221 79.8425 18.2465 80.4051 18.1267 80.9671C17.9954 81.5325 17.7372 82.0295 17.3519 82.4581C16.9667 82.8866 16.4867 83.187 15.9119 83.3591C15.3831 83.5175 14.8435 83.5351 14.293 83.4118C13.739 83.2771 13.2478 83.0171 12.8192 82.6319C12.3757 82.2386 12.0628 81.7373 11.8803 81.1281C11.7116 80.5648 11.6946 80.0062 11.8293 79.4522C11.9526 78.9017 12.201 78.4139 12.5748 77.9888C12.9451 77.5522 13.4291 77.2444 14.0269 77.0654C14.5902 76.8966 15.1505 76.8854 15.7079 77.0316C16.2618 77.1664 16.7491 77.4338 17.1695 77.834C17.5866 78.2227 17.8812 78.7044 18.0534 79.2792Z" fill="white"/>
<path d="M14.4688 61.0498C14.3975 61.8399 14.2316 62.5371 13.9709 63.1415C13.7102 63.7458 13.3684 64.2632 12.9453 64.6936L12.0628 64.1923C12.3338 63.8888 12.5677 63.5819 12.7643 63.2716C12.9525 62.9512 13.1057 62.6043 13.2237 62.2307C13.3324 61.8563 13.4082 61.432 13.4509 60.9579C13.5255 60.1306 13.4275 59.5033 13.1568 59.0759C12.8861 58.6485 12.4951 58.4118 11.9839 58.3657C11.547 58.3263 11.1997 58.4355 10.9422 58.6934C10.6847 58.9514 10.4547 59.4226 10.2524 60.1072L9.82757 61.5448C9.56033 62.4298 9.19744 63.0764 8.7389 63.4849C8.28119 63.8841 7.69446 64.0514 6.9787 63.9868C6.39307 63.934 5.89523 63.7392 5.48516 63.4023C5.07594 63.0561 4.77521 62.5979 4.58299 62.0277C4.39077 61.4575 4.32735 60.8098 4.39275 60.0848C4.45563 59.3876 4.61995 58.7605 4.88573 58.2034C5.14222 57.6456 5.48876 57.1801 5.92536 56.8072L6.78126 57.292C6.35145 57.6937 6.03108 58.1287 5.82016 58.597C5.60079 59.0551 5.46385 59.5863 5.40936 60.1905C5.34061 60.9527 5.45344 61.5721 5.74784 62.0484C6.03378 62.5147 6.46027 62.7733 7.0273 62.8245C7.48279 62.8656 7.85324 62.7584 8.13867 62.503C8.4148 62.2468 8.64686 61.8038 8.83485 61.1742L9.26096 59.7226C9.54168 58.792 9.89737 58.1213 10.328 57.7103C10.7587 57.2993 11.3272 57.1257 12.0337 57.1894C12.5729 57.238 13.0382 57.4299 13.4296 57.7651C13.822 58.091 14.11 58.534 14.2938 59.0941C14.4775 59.6542 14.5359 60.3061 14.4688 61.0498Z" fill="white"/>
<path d="M16.5917 50.8067C16.3229 51.7588 15.8971 52.5114 15.3142 53.0645C14.7314 53.6177 14.0255 53.9712 13.1965 54.1251C12.37 54.27 11.4538 54.2005 10.4478 53.9165C9.44175 53.6325 8.62889 53.2139 8.0092 52.6608C7.38305 52.0961 6.96619 51.4256 6.75861 50.6494C6.55102 49.8731 6.58162 49.0089 6.85039 48.0568C7.04057 47.3831 7.31375 46.8105 7.66994 46.3388C8.02614 45.8672 8.45763 45.4895 8.96442 45.2059L9.73576 45.8746C9.23679 46.1992 8.84239 46.5486 8.55255 46.9226C8.25373 47.294 8.02445 47.7627 7.86471 48.3286C7.55789 49.4154 7.66145 50.3369 8.17538 51.0929C8.68931 51.849 9.55707 52.3995 10.7787 52.7443C12.0003 53.0891 13.0323 53.075 13.8747 52.7018C14.7081 52.3261 15.2782 51.5948 15.585 50.5079C15.7447 49.9421 15.7989 49.4239 15.7474 48.9536C15.6869 48.4807 15.5244 47.9742 15.2599 47.434L16.2805 47.2712C16.5552 47.7754 16.7255 48.3229 16.7915 48.9138C16.8485 49.502 16.7819 50.133 16.5917 50.8067Z" fill="white"/>
<path d="M18.4422 45.4175L9.62288 40.9862L11.4331 37.3834C11.8982 36.4577 12.4796 35.8515 13.1772 35.5649C13.8665 35.2741 14.6031 35.3256 15.3871 35.7195C15.9041 35.9793 16.2875 36.3182 16.5371 36.736C16.7826 37.1414 16.8965 37.6008 16.8787 38.1141C16.8652 38.6192 16.7202 39.1469 16.4436 39.6973L16.3941 39.3904L16.5199 39.1402C16.6917 38.7983 16.928 38.5358 17.2289 38.3527C17.534 38.1613 17.9223 38.0849 18.3939 38.1234L21.9872 38.3621L21.4153 39.5005L17.8971 39.2369C17.4506 39.1901 17.1019 39.2812 16.851 39.5103C16.5917 39.7352 16.3553 40.0603 16.1416 40.4856L15.1484 42.4621L18.9639 44.3792L18.4422 45.4175ZM14.3353 42.0536L15.5484 39.6392C15.8837 38.972 15.9954 38.3962 15.8836 37.9118C15.7677 37.4149 15.4388 37.0302 14.8967 36.7579C14.3546 36.4855 13.8538 36.4532 13.3942 36.661C12.9389 36.8605 12.5436 37.2938 12.2083 37.961L10.9952 40.3753L14.3353 42.0536Z" fill="white"/>
<path d="M19.1724 33.953C18.3475 33.311 17.7494 32.6207 17.378 31.8822C17.0049 31.1306 16.8628 30.3636 16.9514 29.581C17.0458 28.7911 17.3854 28.0205 17.9701 27.2693C18.5376 26.5401 19.1927 26.0328 19.9352 25.7473C20.6778 25.4619 21.4591 25.4077 22.2793 25.5848C23.0978 25.7488 23.9159 26.149 24.7334 26.7853C25.5584 27.4273 26.1545 28.1278 26.5218 28.8868C26.8891 29.6457 27.0292 30.423 26.9422 31.2187C26.8535 32.0012 26.5254 32.7571 25.9579 33.4862C25.3731 34.2375 24.7124 34.7522 23.9756 35.0302C23.2314 35.3026 22.4492 35.3502 21.629 35.1731C20.8089 34.996 19.99 34.5893 19.1724 33.953ZM19.9205 32.9918C20.9222 33.7715 21.8786 34.161 22.7897 34.1605C23.6934 34.1543 24.4807 33.7203 25.1514 32.8585C25.7934 32.0336 26.0123 31.175 25.8079 30.2826C25.6019 29.3772 24.9981 28.5347 23.9964 27.7551C22.9873 26.9697 22.0289 26.5904 21.1211 26.6171C20.2059 26.6381 19.4244 27.0647 18.7766 27.897C18.1059 28.7587 17.8785 29.6284 18.0943 30.506C18.3027 31.3779 18.9115 32.2065 19.9205 32.9918Z" fill="white"/>
<path d="M30.2389 28.6427L23.6604 21.2847L24.5267 20.5102L30.4333 27.1168L34.1489 23.7948L34.8207 24.5463L30.2389 28.6427Z" fill="white"/>
<path d="M36.6947 23.3803L31.3619 15.0749L32.3397 14.4471L37.1278 21.9042L41.3217 19.2114L41.8664 20.0596L36.6947 23.3803Z" fill="white"/>
<path d="M49.0078 17.0741L46.082 7.64774L51.9652 5.82172L52.2474 6.73093L47.474 8.2125L48.4991 11.5151L52.9783 10.1248L53.2605 11.034L48.7813 12.4243L50.1176 16.7297L49.0078 17.0741Z" fill="white"/>
<path d="M56.5979 9.92796C56.4772 8.88962 56.5498 7.97913 56.8159 7.1965C57.0901 6.40351 57.5373 5.76425 58.1573 5.27871C58.7867 4.79209 59.5742 4.49379 60.5198 4.38383C61.4376 4.27709 62.2586 4.38834 62.9828 4.71755C63.707 5.04677 64.2936 5.56582 64.7425 6.27472C65.1996 6.97326 65.4879 7.83706 65.6076 8.86613C65.7284 9.90447 65.647 10.8207 65.3635 11.6147C65.08 12.4088 64.6241 13.0538 63.9958 13.5497C63.3757 14.0352 62.6068 14.3313 61.689 14.4381C60.7434 14.548 59.9131 14.4379 59.1981 14.1076C58.4821 13.768 57.8997 13.2438 57.4508 12.5349C57.0019 11.826 56.7176 10.957 56.5979 9.92796ZM57.8078 9.78726C57.9544 11.0481 58.3474 12.0031 58.9866 12.6523C59.6248 13.2922 60.4863 13.5491 61.5709 13.4229C62.6093 13.3022 63.3749 12.8561 63.8677 12.0846C64.3688 11.3029 64.546 10.2816 64.3994 9.02073C64.2517 7.75062 63.85 6.80133 63.1943 6.17286C62.5376 5.53512 61.6854 5.27716 60.6378 5.39899C59.5531 5.52512 58.7736 5.97283 58.2993 6.7421C57.8239 7.5021 57.6601 8.51716 57.8078 9.78726Z" fill="white"/>
<path d="M68.0785 14.0536L68.8673 4.21521L72.8864 4.53742C73.9191 4.62021 74.6994 4.93089 75.2274 5.46947C75.7561 5.99875 75.9854 6.70065 75.9153 7.57518C75.8691 8.152 75.6993 8.63464 75.406 9.02311C75.1227 9.40302 74.7399 9.68132 74.2576 9.85801C73.7845 10.0354 73.241 10.0995 72.627 10.0503L72.8927 9.88904L73.1718 9.91142C73.5533 9.942 73.8854 10.0623 74.1682 10.2722C74.4603 10.4829 74.6772 10.8139 74.8189 11.2654L75.9493 14.6846L74.6794 14.5828L73.6003 11.2239C73.4757 10.7925 73.2601 10.5037 72.9535 10.3574C72.6476 10.2018 72.2574 10.105 71.783 10.0669L69.578 9.89016L69.2368 14.1465L68.0785 14.0536ZM69.6508 8.98307L72.3441 9.19899C73.0884 9.25866 73.6639 9.14563 74.0707 8.85989C74.4876 8.56559 74.7203 8.11608 74.7687 7.51135C74.8172 6.90663 74.6588 6.43044 74.2934 6.0828C73.9373 5.7359 73.3871 5.53262 72.6428 5.47295L69.9495 5.25703L69.6508 8.98307Z" fill="white"/>
<path d="M83.3207 16.7229L87.093 7.60217L88.0245 7.98742L88.2666 17.7685L87.8914 17.6133L94.9717 10.8607L95.9032 11.246L92.131 20.3667L91.1477 19.96L94.3474 12.2236L94.7356 12.3841L88.0816 18.6919L87.3701 18.3976L87.1026 9.22722L87.4907 9.38775L84.291 17.1242L83.3207 16.7229Z" fill="white"/>
<path d="M96.4129 17.417C97.0064 16.5565 97.6611 15.9196 98.377 15.5063C99.1059 15.0907 99.8635 14.9046 100.65 14.9481C101.444 14.9969 102.233 15.2915 103.016 15.8321C103.777 16.3567 104.321 16.9815 104.649 17.7064C104.977 18.4313 105.076 19.2082 104.946 20.0372C104.829 20.8638 104.477 21.7035 103.889 22.5564C103.295 23.4168 102.63 24.0523 101.894 24.4626C101.157 24.873 100.389 25.0576 99.5898 25.0165C98.8034 24.973 98.0299 24.6889 97.2693 24.1643C96.4856 23.6238 95.9338 22.9937 95.6138 22.2741C95.2991 21.5468 95.2065 20.7687 95.3361 19.9397C95.4657 19.1107 95.8247 18.2698 96.4129 17.417ZM97.4155 18.1085C96.6948 19.1534 96.3609 20.1306 96.4139 21.0402C96.4721 21.9421 96.9507 22.703 97.8496 23.323C98.7101 23.9165 99.5799 24.0856 100.459 23.8303C101.351 23.5725 102.157 22.9212 102.878 21.8763C103.604 20.8237 103.928 19.8451 103.849 18.9403C103.775 18.0278 103.304 17.2722 102.436 16.6734C101.537 16.0533 100.656 15.8763 99.7922 16.1423C98.9337 16.4005 98.1415 17.056 97.4155 18.1085Z" fill="white"/>
<path d="M102.328 28.0863L109.406 21.2068L112.216 24.0979C112.938 24.8408 113.32 25.5888 113.362 26.3418C113.411 27.0883 113.121 27.7674 112.492 28.3789C112.077 28.7822 111.631 29.0333 111.155 29.1321C110.691 29.2312 110.22 29.1882 109.741 29.0032C109.268 28.8249 108.817 28.5149 108.387 28.0732L108.694 28.127L108.889 28.3278C109.156 28.6022 109.326 28.9115 109.4 29.2558C109.481 29.6068 109.426 29.9987 109.235 30.4316L107.832 33.7482L106.944 32.8346L108.346 29.5973C108.537 29.1907 108.565 28.8314 108.431 28.5193C108.303 28.2007 108.074 27.8707 107.742 27.5294L106.2 25.9433L103.138 28.9195L102.328 28.0863ZM106.852 25.309L108.736 27.2465C109.256 27.7819 109.764 28.0762 110.258 28.1294C110.765 28.1828 111.237 27.9981 111.672 27.5752C112.107 27.1523 112.301 26.6898 112.256 26.1875C112.216 25.6919 111.937 25.1764 111.416 24.641L109.533 22.7035L106.852 25.309Z" fill="white"/>
<path d="M108.976 35.6083L117.17 30.1061L120.682 35.3364L119.892 35.8671L117.012 31.5783L114.164 33.4904L116.873 37.5235L116.071 38.062L113.362 34.0289L110.41 36.0112L113.29 40.3001L112.488 40.8386L108.976 35.6083Z" fill="white"/>
<path d="M115.865 57.5974C115.74 57.023 115.758 56.4601 115.919 55.9087C116.093 55.3548 116.388 54.8786 116.804 54.4803C117.221 54.0819 117.722 53.8186 118.308 53.6902C118.847 53.572 119.387 53.5951 119.926 53.7595C120.468 53.9355 120.939 54.2317 121.337 54.6481C121.75 55.0737 122.024 55.5971 122.16 56.2184C122.286 56.7927 122.261 57.351 122.085 57.8933C121.921 58.4329 121.636 58.9007 121.231 59.2964C120.829 59.7039 120.323 59.9744 119.714 60.108C119.139 60.2338 118.58 60.2028 118.035 60.0151C117.493 59.839 117.027 59.5357 116.638 59.105C116.251 58.686 115.994 58.1835 115.865 57.5974Z" fill="white"/>
</svg>
